<svg xmlns="http://www.w3.org/2000/svg" width="378" height="378" viewBox="0 0 100 100"><ellipse cx="50" cy="50.5" fill="#999" rx="40" ry="49"/><path fill="#162d50" stroke="#000" stroke-linejoin="round" stroke-width=".5" d="M17.3 37.6a11 11 0 0 0-.4-4.8c-.3-1-.4-2.3-.6-3.3-.2-1.8 0-3.7-.1-5.5C15 1.8 87.4-.6 84.7 25.3c-.4 3.4-1 6.7-1 10.1 0 21.4 19.2-5 7-6.2-2-.6-1.7-1-1.3-3.2.2-1 .2-2.3.3-3.4 0-1.4.4-4.2-.1-5.5-8.2-20.7-79.1-25.2-79 9.4-13.5 7.4 2.2 27 6.7 11z"/><circle cx="-34.5" cy="41.5" r="5" fill="#5f8dd3" stroke="#000" stroke-linejoin="round" stroke-width="3" transform="scale(-1 1)"/><path fill="maroon" d="M62 65a15.4 13-48.4 0 1 3.2 13.2A15.4 13-48.4 0 1 55 89.7 15.4 13-48.4 0 1 41.5 88l10.2-11.5zM40 86.6a13 15.4 41.7 0 1-3.3-13.3 13 15.4 41.7 0 1 10.2-11.5 13 15.4 41.7 0 1 13.6 1.8L50.2 75.1Z"/><circle cx="64.5" cy="41.5" r="5" fill="#5f8dd3" stroke="#000" stroke-linejoin="round" stroke-width="3"/><path fill="#162d50" stroke="#000" stroke-linejoin="round" stroke-width=".5" d="M90.5 57.2c-4.2 14 1 22.1-17.7 22.7-2.5 0-5.4.3-7.8-.8-7.5-4.3-14.3-1.2-12.9 3.2 1 2.5 6.8 6 10 3.7 7.4-8.6 19.7 2.8 27.5-10.4 1.7-3.3 1.2-6 1.7-9.6 0-2.2.7-7.5-1-8.7"/></svg>
